<svg width="118" height="34" viewBox="0 0 118 34" fill="none" xmlns="http://www.w3.org/2000/svg">
<g clip-path="url(#clip0_1_8790)">
<path fill-rule="evenodd" clip-rule="evenodd" d="M68 29.5V0.5H64V30.5C64 32.1569 65.3431 33.5 67 33.5H76.5V29.5H68Z" fill="#E63946"/>
<path fill-rule="evenodd" clip-rule="evenodd" d="M79.5 4.5C79.5 2.29086 81.2909 0.5 83.5 0.5H93C95.2091 0.5 97 2.29086 97 4.5V29.5C97 31.7091 95.2091 33.5 93 33.5H83.5C81.2909 33.5 79.5 31.7091 79.5 29.5V4.5ZM93 4.5H83.5V29.5H93V4.5Z" fill="#219EBC"/>
<path fill-rule="evenodd" clip-rule="evenodd" d="M102 4.5C102 2.29086 103.791 0.5 106 0.5H114C116.209 0.5 118 2.29086 118 4.5V6.5H114V4.5H106V29.5H114V23.5H110V19.5H114C116.209 19.5 118 21.2909 118 23.5V29.5C118 31.7091 116.209 33.5 114 33.5H106C103.791 33.5 102 31.7091 102 29.5V4.5Z" fill="#219EBC"/>
<path fill-rule="evenodd" clip-rule="evenodd" d="M46.0714 19.5909C44.9537 19.5909 44.0476 20.5067 44.0476 21.6364V27.3636C44.0476 28.4933 44.9537 29.4091 46.0714 29.4091H50.9286C52.0463 29.4091 52.9524 28.4933 52.9524 27.3636V21.6364C52.9524 20.5067 52.0463 19.5909 50.9286 19.5909H46.0714ZM40 21.6364C40 18.2473 42.7183 15.5 46.0714 15.5H50.9286C54.2817 15.5 57 18.2473 57 21.6364V27.3636C57 30.7527 54.2817 33.5 50.9286 33.5H46.0714C42.7183 33.5 40 30.7527 40 27.3636V21.6364Z" fill="#219EBC"/>
<path fill-rule="evenodd" clip-rule="evenodd" d="M26.3358 20.8163H37.0089V16.8628H24.7493C23.2358 16.8628 22.0089 17.9838 22.0089 19.3667V33.8628H26.3358V20.8163Z" fill="#219EBC"/>
<path fill-rule="evenodd" clip-rule="evenodd" d="M15.2679 4.51786H6.93408V0.5H16.7411C18.1465 0.5 19.2858 1.63928 19.2858 3.04464V21.4318C19.2858 22.8372 18.1465 23.9765 16.7411 23.9765H6.93408V19.9586H15.2679V4.51786Z" fill="#E63946"/>
<path fill-rule="evenodd" clip-rule="evenodd" d="M0 33.5V0.5H4V33.5H0Z" fill="#219EBC"/>
</g>
<defs>
<clipPath id="clip0_1_8790">
<rect width="118" height="33" fill="white" transform="translate(0 0.5)"/>
</clipPath>
</defs>
</svg>
